<svg width="685" height="282" viewBox="0 0 685 282" fill="none" xmlns="http://www.w3.org/2000/svg">
<path d="M39.8583 141L42.897 123.077L45.8842 122.819C49.8327 122.51 53.1976 121.051 55.9787 118.442C58.7942 115.798 61.2664 111.592 63.3952 105.823C65.5239 100.021 67.5497 92.2267 69.4725 82.4412L79.0521 35.522H150.641L133.13 141H111.447L125.971 53.3935H96.7691L88.9921 90.1151C86.52 101.926 83.5328 111.575 80.0306 119.06C76.5284 126.545 72.0305 132.073 66.5368 135.644C61.0775 139.215 54.1075 141 45.6266 141H39.8583ZM138.464 141L155.975 35.522H227.049L223.959 53.9085H175.185L171.065 79.042H216.182L213.092 97.4285H167.975L163.855 122.613H212.834L209.744 141H138.464ZM225.494 142.442L228.533 124.313H234.249C237.099 124.313 239.451 123.97 241.305 123.283C243.159 122.562 244.722 121.515 245.992 120.141C247.263 118.734 248.43 116.982 249.494 114.888L251.4 111.437L225.597 35.522H248.67L264.945 87.4369L294.302 35.522H317.015L266.696 120.296C264.258 124.21 261.563 127.85 258.61 131.214C255.657 134.579 252.155 137.292 248.104 139.352C244.052 141.412 239.142 142.442 233.374 142.442H225.494ZM336.447 35.522L351.692 71.471H352.516L379.916 35.522H405.822L364.98 88.261L389.032 141H363.847L348.19 104.999H347.366L319.76 141H293.751L335.623 88.261L311.88 35.522H336.447ZM406.881 35.522H429.13L418.108 101.858H419.035L475.585 35.522H495.105L477.594 141H455.293L466.315 74.6127H465.542L408.683 141H389.37L406.881 35.522ZM482.966 141L500.477 35.522H522.778L515.568 79.042H560.839L568.049 35.522H590.298L572.787 141H550.538L557.749 97.4285H512.478L505.267 141H482.966ZM596.302 141H572.404L626.328 35.522H655.066L673.917 141H650.019L637.195 59.6254H636.371L596.302 141ZM601.761 99.5401H658.208L655.221 116.948H598.774L601.761 99.5401Z" fill="white"/>
<path d="M187.918 140.67V246.148H165.875V158.799H123.23V246.148H101.187V140.67H187.918ZM293.026 193.409C293.026 204.912 290.846 214.697 286.485 222.766C282.159 230.835 276.253 236.998 268.768 241.256C261.317 245.479 252.939 247.591 243.635 247.591C234.261 247.591 225.849 245.462 218.398 241.204C210.947 236.947 205.059 230.783 200.733 222.715C196.406 214.646 194.243 204.877 194.243 193.409C194.243 181.907 196.406 172.122 200.733 164.053C205.059 155.984 210.947 149.838 218.398 145.615C225.849 141.357 234.261 139.228 243.635 139.228C252.939 139.228 261.317 141.357 268.768 145.615C276.253 149.838 282.159 155.984 286.485 164.053C290.846 172.122 293.026 181.907 293.026 193.409ZM270.416 193.409C270.416 185.959 269.3 179.675 267.068 174.559C264.871 169.443 261.764 165.564 257.746 162.92C253.729 160.276 249.025 158.954 243.635 158.954C238.244 158.954 233.54 160.276 229.523 162.92C225.505 165.564 222.381 169.443 220.149 174.559C217.952 179.675 216.853 185.959 216.853 193.409C216.853 200.86 217.952 207.144 220.149 212.26C222.381 217.375 225.505 221.255 229.523 223.899C233.54 226.543 238.244 227.865 243.635 227.865C249.025 227.865 253.729 226.543 257.746 223.899C261.764 221.255 264.871 217.375 267.068 212.26C269.3 207.144 270.416 200.86 270.416 193.409ZM290.776 246.148V228.225L293.763 227.968C297.608 227.659 300.716 226.2 303.085 223.59C305.454 220.946 307.222 216.74 308.39 210.972C309.591 205.169 310.364 197.375 310.707 187.59L312.458 140.67H384.047V246.148H362.365V158.542H333.163L331.514 195.264C330.965 207.075 329.557 216.723 327.291 224.208C325.059 231.693 321.489 237.221 316.579 240.792C311.703 244.363 305.025 246.148 296.544 246.148H290.776ZM389.381 140.67H411.63V207.006H412.506L458.086 140.67H477.606V246.148H455.305V179.761H454.532L408.695 246.148H389.381V140.67ZM482.978 246.148V140.67H505.279V184.19H550.55V140.67H572.799V246.148H550.55V202.577H505.279V246.148H482.978ZM596.313 246.148H572.416L608.828 140.67H637.567L673.928 246.148H650.031L623.61 164.774H622.786L596.313 246.148ZM594.82 204.689H651.267V222.097H594.82V204.689Z" fill="white"/>
<path d="M0.758523 17V8.27273H6.54972V9.79403H2.60369V11.4986H4.02273C4.71307 11.4986 5.30824 11.6108 5.80824 11.8352C6.31108 12.0568 6.69886 12.3707 6.97159 12.777C7.24432 13.1832 7.38068 13.6619 7.38068 14.2131C7.38068 14.7614 7.24432 15.2457 6.97159 15.6662C6.69886 16.0838 6.31108 16.4105 5.80824 16.6463C5.30824 16.8821 4.71307 17 4.02273 17H0.758523ZM2.60369 15.517H4.02273C4.35227 15.517 4.63068 15.4574 4.85795 15.3381C5.08523 15.2159 5.2571 15.0554 5.37358 14.8565C5.4929 14.6548 5.55256 14.4347 5.55256 14.196C5.55256 13.8494 5.42045 13.5568 5.15625 13.3182C4.89489 13.0767 4.51705 12.956 4.02273 12.956H2.60369V15.517ZM14.914 8.27273V17H13.0901V9.77273H9.56169V17H7.73783V8.27273H14.914ZM15.5396 17V15.6705L18.6461 12.794C18.9103 12.5384 19.1319 12.3082 19.3109 12.1037C19.4927 11.8991 19.6305 11.6989 19.7242 11.5028C19.818 11.304 19.8649 11.0895 19.8649 10.8594C19.8649 10.6037 19.8066 10.3835 19.6901 10.1989C19.5737 10.0114 19.4146 9.8679 19.2129 9.76847C19.0112 9.66619 18.7825 9.61506 18.5268 9.61506C18.2597 9.61506 18.0268 9.66903 17.8279 9.77699C17.6291 9.88494 17.4757 10.0398 17.3677 10.2415C17.2597 10.4432 17.2058 10.6832 17.2058 10.9616H15.4543C15.4543 10.3906 15.5836 9.89489 15.8421 9.47443C16.1007 9.05398 16.4629 8.72869 16.9288 8.49858C17.3947 8.26847 17.9316 8.15341 18.5396 8.15341C19.1646 8.15341 19.7086 8.2642 20.1717 8.4858C20.6376 8.70455 20.9998 9.00852 21.2583 9.39773C21.5168 9.78693 21.6461 10.233 21.6461 10.7358C21.6461 11.0653 21.5808 11.3906 21.4501 11.7116C21.3222 12.0327 21.0936 12.3892 20.764 12.7812C20.4345 13.1705 19.97 13.6378 19.3705 14.1832L18.0964 15.4318V15.4915H21.7612V17H15.5396ZM21.6986 15.4659V14.0128L25.342 8.27273H26.5949V10.2841H25.8534L23.5565 13.919V13.9872H28.7341V15.4659H21.6986ZM25.8875 17V15.0227L25.9216 14.3793V8.27273H27.6517V17H25.8875ZM28.4616 19.1051V15.5298H29.0539C29.2556 15.3849 29.4403 15.1804 29.6079 14.9162C29.7755 14.6491 29.919 14.2812 30.0383 13.8125C30.1576 13.3409 30.2429 12.7244 30.294 11.9631L30.5412 8.27273H36.3153V15.5298H37.2698V19.0966H35.4971V17H30.2343V19.1051H28.4616ZM31.1846 15.5298H34.5426V9.79403H32.2031L32.0667 11.9631C32.0298 12.5398 31.9687 13.0511 31.8835 13.4972C31.8011 13.9432 31.7002 14.3338 31.5809 14.669C31.4644 15.0014 31.3323 15.2884 31.1846 15.5298ZM40.4864 17.1193C39.85 17.1193 39.2832 17.0099 38.7861 16.7912C38.2918 16.5696 37.9011 16.2656 37.6142 15.8793C37.3301 15.4901 37.1838 15.0412 37.1753 14.5327H39.0332C39.0446 14.7457 39.1142 14.9332 39.242 15.0952C39.3727 15.2543 39.546 15.3778 39.7619 15.4659C39.9778 15.554 40.2207 15.598 40.4906 15.598C40.7719 15.598 41.0205 15.5483 41.2364 15.4489C41.4523 15.3494 41.6213 15.2116 41.7435 15.0355C41.8656 14.8594 41.9267 14.6562 41.9267 14.4261C41.9267 14.1932 41.8614 13.9872 41.7307 13.8082C41.6028 13.6264 41.4182 13.4844 41.1767 13.3821C40.9381 13.2798 40.654 13.2287 40.3244 13.2287H39.5105V11.8736H40.3244C40.6028 11.8736 40.8486 11.8253 41.0616 11.7287C41.2776 11.6321 41.4452 11.4986 41.5645 11.3281C41.6838 11.1548 41.7435 10.9531 41.7435 10.723C41.7435 10.5043 41.6909 10.3125 41.5858 10.1477C41.4835 9.98011 41.3386 9.84943 41.1511 9.75568C40.9665 9.66193 40.7506 9.61506 40.5034 9.61506C40.2534 9.61506 40.0247 9.66051 39.8173 9.75142C39.6099 9.83949 39.4437 9.96591 39.3187 10.1307C39.1937 10.2955 39.127 10.4886 39.1185 10.7102H37.35C37.3585 10.2074 37.502 9.7642 37.7804 9.38068C38.0588 8.99716 38.4338 8.69744 38.9054 8.48153C39.3798 8.26278 39.9153 8.15341 40.5119 8.15341C41.1142 8.15341 41.6412 8.26278 42.0929 8.48153C42.5446 8.70028 42.8955 8.99574 43.1455 9.3679C43.3983 9.73722 43.5233 10.152 43.5205 10.6122C43.5233 11.1009 43.3713 11.5085 43.0645 11.8352C42.7605 12.1619 42.3642 12.3693 41.8756 12.4574V12.5256C42.5176 12.608 43.0062 12.831 43.3415 13.1946C43.6795 13.5554 43.8472 14.0071 43.8443 14.5497C43.8472 15.0469 43.7037 15.4886 43.4139 15.875C43.127 16.2614 42.7307 16.5653 42.225 16.7869C41.7193 17.0085 41.1398 17.1193 40.4864 17.1193ZM47.5125 17.1918C46.7796 17.1889 46.1489 17.0085 45.6205 16.6506C45.0949 16.2926 44.6901 15.7741 44.406 15.0952C44.1248 14.4162 43.9856 13.5994 43.9884 12.6449C43.9884 11.6932 44.129 10.8821 44.4103 10.2116C44.6944 9.54119 45.0992 9.03125 45.6248 8.68182C46.1532 8.32955 46.7824 8.15341 47.5125 8.15341C48.2427 8.15341 48.8705 8.32955 49.3961 8.68182C49.9245 9.03409 50.3307 9.54545 50.6148 10.2159C50.8989 10.8835 51.0395 11.6932 51.0367 12.6449C51.0367 13.6023 50.8946 14.4205 50.6106 15.0994C50.3293 15.7784 49.9259 16.2969 49.4003 16.6548C48.8748 17.0128 48.2455 17.1918 47.5125 17.1918ZM47.5125 15.6619C48.0125 15.6619 48.4117 15.4105 48.71 14.9077C49.0083 14.4048 49.156 13.6506 49.1532 12.6449C49.1532 11.983 49.085 11.4318 48.9486 10.9915C48.8151 10.5511 48.6248 10.2202 48.3776 9.99858C48.1333 9.77699 47.8449 9.66619 47.5125 9.66619C47.0154 9.66619 46.6177 9.91477 46.3194 10.4119C46.0211 10.9091 45.8705 11.6534 45.8677 12.6449C45.8677 13.3153 45.9344 13.875 46.0679 14.3239C46.2043 14.7699 46.3961 15.1051 46.6432 15.3295C46.8904 15.5511 47.1802 15.6619 47.5125 15.6619ZM54.4301 8.15341C54.8789 8.15341 55.3107 8.22869 55.7255 8.37926C56.1431 8.52983 56.5153 8.76989 56.842 9.09943C57.1715 9.42898 57.4315 9.86648 57.6218 10.4119C57.815 10.9545 57.913 11.6207 57.9159 12.4105C57.9159 13.152 57.832 13.8139 57.6644 14.3963C57.4997 14.9759 57.2624 15.4688 56.9528 15.875C56.6431 16.2812 56.2695 16.5909 55.832 16.804C55.3945 17.0142 54.9059 17.1193 54.3661 17.1193C53.7837 17.1193 53.2695 17.0071 52.8235 16.7827C52.3775 16.5554 52.0181 16.2472 51.7454 15.858C51.4755 15.4659 51.3122 15.0256 51.2553 14.5369H53.0749C53.146 14.8551 53.2951 15.1023 53.5224 15.2784C53.7497 15.4517 54.0309 15.5384 54.3661 15.5384C54.9343 15.5384 55.3661 15.2912 55.6616 14.7969C55.957 14.2997 56.1062 13.6193 56.109 12.7557H56.0494C55.9187 13.0114 55.7426 13.2315 55.521 13.4162C55.2994 13.598 55.0451 13.7386 54.7582 13.8381C54.4741 13.9375 54.1715 13.9872 53.8505 13.9872C53.3363 13.9872 52.8775 13.8665 52.4741 13.625C52.0707 13.3835 51.7525 13.0511 51.5195 12.6278C51.2866 12.2045 51.1701 11.7216 51.1701 11.179C51.1673 10.5938 51.3022 10.0724 51.5749 9.61506C51.8477 9.15767 52.2284 8.79972 52.717 8.54119C53.2085 8.27983 53.7795 8.15057 54.4301 8.15341ZM54.4428 9.60227C54.1559 9.60227 53.9002 9.67045 53.6758 9.80682C53.4542 9.94318 53.2781 10.1264 53.1474 10.3565C53.0195 10.5866 52.957 10.8437 52.9599 11.1278C52.9599 11.4148 53.0224 11.6733 53.1474 11.9034C53.2752 12.1307 53.4485 12.3125 53.6673 12.4489C53.8889 12.5824 54.1417 12.6491 54.4258 12.6491C54.6389 12.6491 54.8363 12.6094 55.0181 12.5298C55.1999 12.4503 55.3576 12.3409 55.4911 12.2017C55.6275 12.0597 55.734 11.8963 55.8107 11.7116C55.8874 11.527 55.9258 11.331 55.9258 11.1236C55.923 10.848 55.8576 10.5952 55.7298 10.3651C55.6019 10.1349 55.4258 9.95028 55.2014 9.81108C54.9769 9.67187 54.7241 9.60227 54.4428 9.60227Z" fill="white"/>
</svg>
