<svg width="1661" height="75" viewBox="0 0 1661 75" fill="none" xmlns="http://www.w3.org/2000/svg">
<path d="M60.1463 1.27273V74H44.9474V13.7727H15.544V74H0.345171V1.27273H60.1463ZM132.618 37.6364C132.618 45.5672 131.115 52.3144 128.108 57.8778C125.125 63.4413 121.053 67.6908 115.892 70.6264C110.755 73.5384 104.979 74.9943 98.5629 74.9943C92.0998 74.9943 86.2996 73.5265 81.1623 70.5909C76.025 67.6553 71.9648 63.4058 68.9819 57.8423C65.9989 52.2789 64.5075 45.5436 64.5075 37.6364C64.5075 29.7055 65.9989 22.9583 68.9819 17.3949C71.9648 11.8314 76.025 7.59375 81.1623 4.68182C86.2996 1.74621 92.0998 0.278406 98.5629 0.278406C104.979 0.278406 110.755 1.74621 115.892 4.68182C121.053 7.59375 125.125 11.8314 128.108 17.3949C131.115 22.9583 132.618 29.7055 132.618 37.6364ZM117.029 37.6364C117.029 32.4991 116.259 28.1667 114.721 24.6392C113.205 21.1117 111.063 18.4366 108.293 16.6136C105.523 14.7907 102.28 13.8793 98.5629 13.8793C94.846 13.8793 91.6026 14.7907 88.8327 16.6136C86.0629 18.4366 83.9085 21.1117 82.3697 24.6392C80.8545 28.1667 80.0969 32.4991 80.0969 37.6364C80.0969 42.7737 80.8545 47.1061 82.3697 50.6335C83.9085 54.161 86.0629 56.8362 88.8327 58.6591C91.6026 60.482 94.846 61.3935 98.5629 61.3935C102.28 61.3935 105.523 60.482 108.293 58.6591C111.063 56.8362 113.205 54.161 114.721 50.6335C116.259 47.1061 117.029 42.7737 117.029 37.6364ZM201.841 37.6364C201.841 45.5672 200.338 52.3144 197.331 57.8778C194.348 63.4413 190.276 67.6908 185.115 70.6264C179.978 73.5384 174.201 74.9943 167.786 74.9943C161.322 74.9943 155.522 73.5265 150.385 70.5909C145.248 67.6553 141.188 63.4058 138.205 57.8423C135.222 52.2789 133.73 45.5436 133.73 37.6364C133.73 29.7055 135.222 22.9583 138.205 17.3949C141.188 11.8314 145.248 7.59375 150.385 4.68182C155.522 1.74621 161.322 0.278406 167.786 0.278406C174.201 0.278406 179.978 1.74621 185.115 4.68182C190.276 7.59375 194.348 11.8314 197.331 17.3949C200.338 22.9583 201.841 29.7055 201.841 37.6364ZM186.251 37.6364C186.251 32.4991 185.482 28.1667 183.943 24.6392C182.428 21.1117 180.286 18.4366 177.516 16.6136C174.746 14.7907 171.502 13.8793 167.786 13.8793C164.069 13.8793 160.825 14.7907 158.055 16.6136C155.286 18.4366 153.131 21.1117 151.592 24.6392C150.077 28.1667 149.32 32.4991 149.32 37.6364C149.32 42.7737 150.077 47.1061 151.592 50.6335C153.131 54.161 155.286 56.8362 158.055 58.6591C160.825 60.482 164.069 61.3935 167.786 61.3935C171.502 61.3935 174.746 60.482 177.516 58.6591C180.286 56.8362 182.428 54.161 183.943 50.6335C185.482 47.1061 186.251 42.7737 186.251 37.6364ZM271.064 37.6364C271.064 45.5672 269.56 52.3144 266.554 57.8778C263.571 63.4413 259.499 67.6908 254.338 70.6264C249.2 73.5384 243.424 74.9943 237.008 74.9943C230.545 74.9943 224.745 73.5265 219.608 70.5909C214.47 67.6553 210.41 63.4058 207.427 57.8423C204.444 52.2789 202.953 45.5436 202.953 37.6364C202.953 29.7055 204.444 22.9583 207.427 17.3949C210.41 11.8314 214.47 7.59375 219.608 4.68182C224.745 1.74621 230.545 0.278406 237.008 0.278406C243.424 0.278406 249.2 1.74621 254.338 4.68182C259.499 7.59375 263.571 11.8314 266.554 17.3949C269.56 22.9583 271.064 29.7055 271.064 37.6364ZM255.474 37.6364C255.474 32.4991 254.705 28.1667 253.166 24.6392C251.651 21.1117 249.508 18.4366 246.738 16.6136C243.968 14.7907 240.725 13.8793 237.008 13.8793C233.291 13.8793 230.048 14.7907 227.278 16.6136C224.508 18.4366 222.354 21.1117 220.815 24.6392C219.3 28.1667 218.542 32.4991 218.542 37.6364C218.542 42.7737 219.3 47.1061 220.815 50.6335C222.354 54.161 224.508 56.8362 227.278 58.6591C230.048 60.482 233.291 61.3935 237.008 61.3935C240.725 61.3935 243.968 60.482 246.738 58.6591C249.508 56.8362 251.651 54.161 253.166 50.6335C254.705 47.1061 255.474 42.7737 255.474 37.6364ZM340.286 37.6364C340.286 45.5672 338.783 52.3144 335.776 57.8778C332.793 63.4413 328.721 67.6908 323.56 70.6264C318.423 73.5384 312.647 74.9943 306.231 74.9943C299.768 74.9943 293.968 73.5265 288.83 70.5909C283.693 67.6553 279.633 63.4058 276.65 57.8423C273.667 52.2789 272.175 45.5436 272.175 37.6364C272.175 29.7055 273.667 22.9583 276.65 17.3949C279.633 11.8314 283.693 7.59375 288.83 4.68182C293.968 1.74621 299.768 0.278406 306.231 0.278406C312.647 0.278406 318.423 1.74621 323.56 4.68182C328.721 7.59375 332.793 11.8314 335.776 17.3949C338.783 22.9583 340.286 29.7055 340.286 37.6364ZM324.697 37.6364C324.697 32.4991 323.927 28.1667 322.388 24.6392C320.873 21.1117 318.731 18.4366 315.961 16.6136C313.191 14.7907 309.948 13.8793 306.231 13.8793C302.514 13.8793 299.271 14.7907 296.501 16.6136C293.731 18.4366 291.576 21.1117 290.038 24.6392C288.522 28.1667 287.765 32.4991 287.765 37.6364C287.765 42.7737 288.522 47.1061 290.038 50.6335C291.576 54.161 293.731 56.8362 296.501 58.6591C299.271 60.482 302.514 61.3935 306.231 61.3935C309.948 61.3935 313.191 60.482 315.961 58.6591C318.731 56.8362 320.873 54.161 322.388 50.6335C323.927 47.1061 324.697 42.7737 324.697 37.6364ZM409.509 37.6364C409.509 45.5672 408.006 52.3144 404.999 57.8778C402.016 63.4413 397.944 67.6908 392.783 70.6264C387.646 73.5384 381.869 74.9943 375.453 74.9943C368.99 74.9943 363.19 73.5265 358.053 70.5909C352.916 67.6553 348.855 63.4058 345.873 57.8423C342.89 52.2789 341.398 45.5436 341.398 37.6364C341.398 29.7055 342.89 22.9583 345.873 17.3949C348.855 11.8314 352.916 7.59375 358.053 4.68182C363.19 1.74621 368.99 0.278406 375.453 0.278406C381.869 0.278406 387.646 1.74621 392.783 4.68182C397.944 7.59375 402.016 11.8314 404.999 17.3949C408.006 22.9583 409.509 29.7055 409.509 37.6364ZM393.919 37.6364C393.919 32.4991 393.15 28.1667 391.611 24.6392C390.096 21.1117 387.953 18.4366 385.184 16.6136C382.414 14.7907 379.17 13.8793 375.453 13.8793C371.737 13.8793 368.493 14.7907 365.723 16.6136C362.953 18.4366 360.799 21.1117 359.26 24.6392C357.745 28.1667 356.988 32.4991 356.988 37.6364C356.988 42.7737 357.745 47.1061 359.26 50.6335C360.799 54.161 362.953 56.8362 365.723 58.6591C368.493 60.482 371.737 61.3935 375.453 61.3935C379.17 61.3935 382.414 60.482 385.184 58.6591C387.953 56.8362 390.096 54.161 391.611 50.6335C393.15 47.1061 393.919 42.7737 393.919 37.6364ZM478.732 37.6364C478.732 45.5672 477.228 52.3144 474.222 57.8778C471.239 63.4413 467.167 67.6908 462.006 70.6264C456.868 73.5384 451.092 74.9943 444.676 74.9943C438.213 74.9943 432.413 73.5265 427.276 70.5909C422.138 67.6553 418.078 63.4058 415.095 57.8423C412.112 52.2789 410.621 45.5436 410.621 37.6364C410.621 29.7055 412.112 22.9583 415.095 17.3949C418.078 11.8314 422.138 7.59375 427.276 4.68182C432.413 1.74621 438.213 0.278406 444.676 0.278406C451.092 0.278406 456.868 1.74621 462.006 4.68182C467.167 7.59375 471.239 11.8314 474.222 17.3949C477.228 22.9583 478.732 29.7055 478.732 37.6364ZM463.142 37.6364C463.142 32.4991 462.373 28.1667 460.834 24.6392C459.319 21.1117 457.176 18.4366 454.406 16.6136C451.636 14.7907 448.393 13.8793 444.676 13.8793C440.959 13.8793 437.716 14.7907 434.946 16.6136C432.176 18.4366 430.022 21.1117 428.483 24.6392C426.968 28.1667 426.21 32.4991 426.21 37.6364C426.21 42.7737 426.968 47.1061 428.483 50.6335C430.022 54.161 432.176 56.8362 434.946 58.6591C437.716 60.482 440.959 61.3935 444.676 61.3935C448.393 61.3935 451.636 60.482 454.406 58.6591C457.176 56.8362 459.319 54.161 460.834 50.6335C462.373 47.1061 463.142 42.7737 463.142 37.6364ZM547.954 37.6364C547.954 45.5672 546.451 52.3144 543.444 57.8778C540.461 63.4413 536.389 67.6908 531.228 70.6264C526.091 73.5384 520.315 74.9943 513.899 74.9943C507.436 74.9943 501.636 73.5265 496.498 70.5909C491.361 67.6553 487.301 63.4058 484.318 57.8423C481.335 52.2789 479.843 45.5436 479.843 37.6364C479.843 29.7055 481.335 22.9583 484.318 17.3949C487.301 11.8314 491.361 7.59375 496.498 4.68182C501.636 1.74621 507.436 0.278406 513.899 0.278406C520.315 0.278406 526.091 1.74621 531.228 4.68182C536.389 7.59375 540.461 11.8314 543.444 17.3949C546.451 22.9583 547.954 29.7055 547.954 37.6364ZM532.365 37.6364C532.365 32.4991 531.595 28.1667 530.056 24.6392C528.541 21.1117 526.399 18.4366 523.629 16.6136C520.859 14.7907 517.616 13.8793 513.899 13.8793C510.182 13.8793 506.939 14.7907 504.169 16.6136C501.399 18.4366 499.244 21.1117 497.706 24.6392C496.19 28.1667 495.433 32.4991 495.433 37.6364C495.433 42.7737 496.19 47.1061 497.706 50.6335C499.244 54.161 501.399 56.8362 504.169 58.6591C506.939 60.482 510.182 61.3935 513.899 61.3935C517.616 61.3935 520.859 60.482 523.629 58.6591C526.399 56.8362 528.541 54.161 530.056 50.6335C531.595 47.1061 532.365 42.7737 532.365 37.6364ZM617.177 37.6364C617.177 45.5672 615.674 52.3144 612.667 57.8778C609.684 63.4413 605.612 67.6908 600.451 70.6264C595.314 73.5384 589.537 74.9943 583.121 74.9943C576.658 74.9943 570.858 73.5265 565.721 70.5909C560.584 67.6553 556.523 63.4058 553.54 57.8423C550.558 52.2789 549.066 45.5436 549.066 37.6364C549.066 29.7055 550.558 22.9583 553.54 17.3949C556.523 11.8314 560.584 7.59375 565.721 4.68182C570.858 1.74621 576.658 0.278406 583.121 0.278406C589.537 0.278406 595.314 1.74621 600.451 4.68182C605.612 7.59375 609.684 11.8314 612.667 17.3949C615.674 22.9583 617.177 29.7055 617.177 37.6364ZM601.587 37.6364C601.587 32.4991 600.818 28.1667 599.279 24.6392C597.764 21.1117 595.621 18.4366 592.852 16.6136C590.082 14.7907 586.838 13.8793 583.121 13.8793C579.405 13.8793 576.161 14.7907 573.391 16.6136C570.621 18.4366 568.467 21.1117 566.928 24.6392C565.413 28.1667 564.656 32.4991 564.656 37.6364C564.656 42.7737 565.413 47.1061 566.928 50.6335C568.467 54.161 570.621 56.8362 573.391 58.6591C576.161 60.482 579.405 61.3935 583.121 61.3935C586.838 61.3935 590.082 60.482 592.852 58.6591C595.621 56.8362 597.764 54.161 599.279 50.6335C600.818 47.1061 601.587 42.7737 601.587 37.6364ZM686.4 37.6364C686.4 45.5672 684.896 52.3144 681.89 57.8778C678.907 63.4413 674.835 67.6908 669.674 70.6264C664.536 73.5384 658.76 74.9943 652.344 74.9943C645.881 74.9943 640.081 73.5265 634.944 70.5909C629.806 67.6553 625.746 63.4058 622.763 57.8423C619.78 52.2789 618.289 45.5436 618.289 37.6364C618.289 29.7055 619.78 22.9583 622.763 17.3949C625.746 11.8314 629.806 7.59375 634.944 4.68182C640.081 1.74621 645.881 0.278406 652.344 0.278406C658.76 0.278406 664.536 1.74621 669.674 4.68182C674.835 7.59375 678.907 11.8314 681.89 17.3949C684.896 22.9583 686.4 29.7055 686.4 37.6364ZM670.81 37.6364C670.81 32.4991 670.041 28.1667 668.502 24.6392C666.987 21.1117 664.844 18.4366 662.074 16.6136C659.304 14.7907 656.061 13.8793 652.344 13.8793C648.627 13.8793 645.384 14.7907 642.614 16.6136C639.844 18.4366 637.69 21.1117 636.151 24.6392C634.636 28.1667 633.878 32.4991 633.878 37.6364C633.878 42.7737 634.636 47.1061 636.151 50.6335C637.69 54.161 639.844 56.8362 642.614 58.6591C645.384 60.482 648.627 61.3935 652.344 61.3935C656.061 61.3935 659.304 60.482 662.074 58.6591C664.844 56.8362 666.987 54.161 668.502 50.6335C670.041 47.1061 670.81 42.7737 670.81 37.6364ZM755.622 37.6364C755.622 45.5672 754.119 52.3144 751.112 57.8778C748.129 63.4413 744.057 67.6908 738.896 70.6264C733.759 73.5384 727.982 74.9943 721.567 74.9943C715.104 74.9943 709.304 73.5265 704.166 70.5909C699.029 67.6553 694.969 63.4058 691.986 57.8423C689.003 52.2789 687.511 45.5436 687.511 37.6364C687.511 29.7055 689.003 22.9583 691.986 17.3949C694.969 11.8314 699.029 7.59375 704.166 4.68182C709.304 1.74621 715.104 0.278406 721.567 0.278406C727.982 0.278406 733.759 1.74621 738.896 4.68182C744.057 7.59375 748.129 11.8314 751.112 17.3949C754.119 22.9583 755.622 29.7055 755.622 37.6364ZM740.033 37.6364C740.033 32.4991 739.263 28.1667 737.724 24.6392C736.209 21.1117 734.067 18.4366 731.297 16.6136C728.527 14.7907 725.284 13.8793 721.567 13.8793C717.85 13.8793 714.607 14.7907 711.837 16.6136C709.067 18.4366 706.912 21.1117 705.374 24.6392C703.858 28.1667 703.101 32.4991 703.101 37.6364C703.101 42.7737 703.858 47.1061 705.374 50.6335C706.912 54.161 709.067 56.8362 711.837 58.6591C714.607 60.482 717.85 61.3935 721.567 61.3935C725.284 61.3935 728.527 60.482 731.297 58.6591C734.067 56.8362 736.209 54.161 737.724 50.6335C739.263 47.1061 740.033 42.7737 740.033 37.6364ZM824.845 37.6364C824.845 45.5672 823.342 52.3144 820.335 57.8778C817.352 63.4413 813.28 67.6908 808.119 70.6264C802.982 73.5384 797.205 74.9943 790.789 74.9943C784.326 74.9943 778.526 73.5265 773.389 70.5909C768.252 67.6553 764.191 63.4058 761.208 57.8423C758.225 52.2789 756.734 45.5436 756.734 37.6364C756.734 29.7055 758.225 22.9583 761.208 17.3949C764.191 11.8314 768.252 7.59375 773.389 4.68182C778.526 1.74621 784.326 0.278406 790.789 0.278406C797.205 0.278406 802.982 1.74621 808.119 4.68182C813.28 7.59375 817.352 11.8314 820.335 17.3949C823.342 22.9583 824.845 29.7055 824.845 37.6364ZM809.255 37.6364C809.255 32.4991 808.486 28.1667 806.947 24.6392C805.432 21.1117 803.289 18.4366 800.52 16.6136C797.75 14.7907 794.506 13.8793 790.789 13.8793C787.073 13.8793 783.829 14.7907 781.059 16.6136C778.289 18.4366 776.135 21.1117 774.596 24.6392C773.081 28.1667 772.324 32.4991 772.324 37.6364C772.324 42.7737 773.081 47.1061 774.596 50.6335C776.135 54.161 778.289 56.8362 781.059 58.6591C783.829 60.482 787.073 61.3935 790.789 61.3935C794.506 61.3935 797.75 60.482 800.52 58.6591C803.289 56.8362 805.432 54.161 806.947 50.6335C808.486 47.1061 809.255 42.7737 809.255 37.6364ZM894.067 37.6364C894.067 45.5672 892.564 52.3144 889.558 57.8778C886.575 63.4413 882.503 67.6908 877.342 70.6264C872.204 73.5384 866.428 74.9943 860.012 74.9943C853.549 74.9943 847.749 73.5265 842.612 70.5909C837.474 67.6553 833.414 63.4058 830.431 57.8423C827.448 52.2789 825.957 45.5436 825.957 37.6364C825.957 29.7055 827.448 22.9583 830.431 17.3949C833.414 11.8314 837.474 7.59375 842.612 4.68182C847.749 1.74621 853.549 0.278406 860.012 0.278406C866.428 0.278406 872.204 1.74621 877.342 4.68182C882.503 7.59375 886.575 11.8314 889.558 17.3949C892.564 22.9583 894.067 29.7055 894.067 37.6364ZM878.478 37.6364C878.478 32.4991 877.709 28.1667 876.17 24.6392C874.655 21.1117 872.512 18.4366 869.742 16.6136C866.972 14.7907 863.729 13.8793 860.012 13.8793C856.295 13.8793 853.052 14.7907 850.282 16.6136C847.512 18.4366 845.358 21.1117 843.819 24.6392C842.304 28.1667 841.546 32.4991 841.546 37.6364C841.546 42.7737 842.304 47.1061 843.819 50.6335C845.358 54.161 847.512 56.8362 850.282 58.6591C853.052 60.482 856.295 61.3935 860.012 61.3935C863.729 61.3935 866.972 60.482 869.742 58.6591C872.512 56.8362 874.655 54.161 876.17 50.6335C877.709 47.1061 878.478 42.7737 878.478 37.6364ZM963.29 37.6364C963.29 45.5672 961.787 52.3144 958.78 57.8778C955.797 63.4413 951.725 67.6908 946.564 70.6264C941.427 73.5384 935.65 74.9943 929.235 74.9943C922.772 74.9943 916.971 73.5265 911.834 70.5909C906.697 67.6553 902.637 63.4058 899.654 57.8423C896.671 52.2789 895.179 45.5436 895.179 37.6364C895.179 29.7055 896.671 22.9583 899.654 17.3949C902.637 11.8314 906.697 7.59375 911.834 4.68182C916.971 1.74621 922.772 0.278406 929.235 0.278406C935.65 0.278406 941.427 1.74621 946.564 4.68182C951.725 7.59375 955.797 11.8314 958.78 17.3949C961.787 22.9583 963.29 29.7055 963.29 37.6364ZM947.701 37.6364C947.701 32.4991 946.931 28.1667 945.392 24.6392C943.877 21.1117 941.735 18.4366 938.965 16.6136C936.195 14.7907 932.952 13.8793 929.235 13.8793C925.518 13.8793 922.275 14.7907 919.505 16.6136C916.735 18.4366 914.58 21.1117 913.042 24.6392C911.526 28.1667 910.769 32.4991 910.769 37.6364C910.769 42.7737 911.526 47.1061 913.042 50.6335C914.58 54.161 916.735 56.8362 919.505 58.6591C922.275 60.482 925.518 61.3935 929.235 61.3935C932.952 61.3935 936.195 60.482 938.965 58.6591C941.735 56.8362 943.877 54.161 945.392 50.6335C946.931 47.1061 947.701 42.7737 947.701 37.6364ZM1032.51 37.6364C1032.51 45.5672 1031.01 52.3144 1028 57.8778C1025.02 63.4413 1020.95 67.6908 1015.79 70.6264C1010.65 73.5384 1004.87 74.9943 998.457 74.9943C991.994 74.9943 986.194 73.5265 981.057 70.5909C975.92 67.6553 971.859 63.4058 968.876 57.8423C965.893 52.2789 964.402 45.5436 964.402 37.6364C964.402 29.7055 965.893 22.9583 968.876 17.3949C971.859 11.8314 975.92 7.59375 981.057 4.68182C986.194 1.74621 991.994 0.278406 998.457 0.278406C1004.87 0.278406 1010.65 1.74621 1015.79 4.68182C1020.95 7.59375 1025.02 11.8314 1028 17.3949C1031.01 22.9583 1032.51 29.7055 1032.51 37.6364ZM1016.92 37.6364C1016.92 32.4991 1016.15 28.1667 1014.62 24.6392C1013.1 21.1117 1010.96 18.4366 1008.19 16.6136C1005.42 14.7907 1002.17 13.8793 998.457 13.8793C994.741 13.8793 991.497 14.7907 988.727 16.6136C985.957 18.4366 983.803 21.1117 982.264 24.6392C980.749 28.1667 979.991 32.4991 979.991 37.6364C979.991 42.7737 980.749 47.1061 982.264 50.6335C983.803 54.161 985.957 56.8362 988.727 58.6591C991.497 60.482 994.741 61.3935 998.457 61.3935C1002.17 61.3935 1005.42 60.482 1008.19 58.6591C1010.96 56.8362 1013.1 54.161 1014.62 50.6335C1016.15 47.1061 1016.92 42.7737 1016.92 37.6364ZM1034.9 74V1.27273H1063.6C1069.11 1.27273 1073.81 2.32623 1077.69 4.43324C1081.58 6.51657 1084.54 9.41666 1086.57 13.1335C1088.63 16.8267 1089.66 21.0881 1089.66 25.9176C1089.66 30.7472 1088.62 35.0085 1086.54 38.7017C1084.45 42.3949 1081.43 45.2713 1077.48 47.331C1073.55 49.3906 1068.79 50.4205 1063.21 50.4205H1044.92V38.098H1060.72C1063.68 38.098 1066.12 37.589 1068.04 36.571C1069.98 35.5294 1071.42 34.0971 1072.37 32.2741C1073.34 30.4276 1073.82 28.3087 1073.82 25.9176C1073.82 23.5028 1073.34 21.3958 1072.37 19.5966C1071.42 17.7737 1069.98 16.3651 1068.04 15.3707C1066.09 14.3527 1063.63 13.8438 1060.65 13.8438H1050.28V74H1034.9ZM1087.88 13.9503V1.27273H1147.61V13.9503H1125.34V74H1110.14V13.9503H1087.88ZM1152.09 74H1135.62L1160.72 1.27273H1180.54L1205.61 74H1189.13L1170.92 17.892H1170.35L1152.09 74ZM1151.06 45.4134H1189.99V57.4162H1151.06V45.4134ZM1217.9 74H1201.42L1226.53 1.27273H1246.34L1271.42 74H1254.94L1236.72 17.892H1236.15L1217.9 74ZM1216.87 45.4134H1255.79V57.4162H1216.87V45.4134ZM1283.7 74H1267.23L1292.33 1.27273H1312.15L1337.22 74H1320.74L1302.53 17.892H1301.96L1283.7 74ZM1282.67 45.4134H1321.59V57.4162H1282.67V45.4134ZM1349.51 74H1333.03L1358.14 1.27273H1377.95L1403.02 74H1386.55L1368.33 17.892H1367.76L1349.51 74ZM1348.48 45.4134H1387.4V57.4162H1348.48V45.4134ZM1415.31 74H1398.84L1423.94 1.27273H1443.76L1468.83 74H1452.35L1434.13 17.892H1433.57L1415.31 74ZM1414.28 45.4134H1453.2V57.4162H1414.28V45.4134ZM1481.12 74H1464.64L1489.75 1.27273H1509.56L1534.63 74H1518.16L1499.94 17.892H1499.37L1481.12 74ZM1480.09 45.4134H1519.01V57.4162H1480.09V45.4134ZM1546.92 74H1530.45L1555.55 1.27273H1575.37L1600.44 74H1583.96L1565.74 17.892H1565.18L1546.92 74ZM1545.89 45.4134H1584.81V57.4162H1545.89V45.4134ZM1596.25 74V61.642L1598.31 61.4645C1600.96 61.2514 1603.1 60.2453 1604.74 58.446C1606.37 56.6231 1607.59 53.723 1608.4 49.7457C1609.22 45.7448 1609.76 40.3707 1609.99 33.6236L1611.2 1.27273H1660.56V74H1645.61V13.5952H1625.48L1624.34 38.9148C1623.96 47.0587 1622.99 53.7112 1621.43 58.8722C1619.89 64.0331 1617.43 67.8447 1614.04 70.3068C1610.68 72.7689 1606.08 74 1600.23 74H1596.25Z" fill="white"/>
</svg>
