<svg width="361" height="177" viewBox="0 0 361 177" fill="none" xmlns="http://www.w3.org/2000/svg">
<path d="M118.022 53.7661C119.688 38.7782 128.016 28.0726 143.006 24.7419L132.061 121.806C130.157 138.698 121.115 148.214 106.838 151.544L118.022 53.7661ZM0 171.766V52.5766C0 39.7299 7.85223 29.9758 20.9393 25.9315V171.766H0ZM20.9393 25.9315V12.6089C20.9393 4.52017 26.1741 0 32.8371 0C39.0237 0 43.5447 3.80647 44.4965 12.1331L45.9242 24.7419C42.8309 24.0282 39.4996 23.7903 35.9304 23.7903C30.4577 23.7903 25.4603 24.504 20.9393 25.9315ZM45.9242 24.7419C60.9148 28.0726 69.2429 38.7782 70.9085 53.7661L82.092 151.544C67.8152 148.214 58.7733 138.698 56.8697 121.806L45.9242 24.7419ZM82.092 151.544C85.8992 152.258 89.9443 152.734 94.4652 152.734C98.9862 152.734 103.031 152.258 106.838 151.544L105.173 166.77C104.459 173.194 101.366 177 94.4652 177C87.8027 177 84.4715 173.194 83.7577 166.77L82.092 151.544ZM143.006 24.7419L144.434 12.1331C145.386 3.80647 150.383 0 156.093 0C163.232 0 167.753 4.52017 167.753 12.6089V25.9315C163.47 24.504 158.473 23.7903 153 23.7903C149.431 23.7903 146.1 24.0282 143.006 24.7419ZM167.753 171.766V25.9315C181.078 29.9758 188.93 39.7299 188.93 52.5766V171.766H167.753ZM252.496 150.117C234.65 142.028 225.846 125.851 225.846 98.254V5.23388H248.213V121.569C248.213 132.988 249.641 142.504 252.496 150.117ZM252.496 150.117C262.966 154.875 276.529 156.778 293.423 156.778C310.317 156.778 323.88 154.637 334.35 149.879C328.163 166.532 314.838 174.621 293.423 174.621C272.246 174.621 258.921 166.532 252.496 150.117ZM334.35 149.879C337.205 142.266 338.633 132.75 338.633 121.569V5.23388H361V98.254C361 125.375 352.196 141.552 334.35 149.879Z" fill="black"/>
</svg>
